Coordinates
version=1
nRows=9
nColumns=24
inDegrees=yes

Units are S.I. units (second, meters, Newtons, ...)
Angles are in degrees.

endheader
time	pelvis_tilt	pelvis_list	pelvis_rotation	pelvis_tx	pelvis_ty	pelvis_tz	hip_flexion_r	hip_adduction_r	hip_rotation_r	knee_angle_r	ankle_angle_r	subtalar_angle_r	mtp_angle_r	hip_flexion_l	hip_adduction_l	hip_rotation_l	knee_angle_l	ankle_angle_l	subtalar_angle_l	mtp_angle_l	lumbar_extension	lumbar_bending	lumbar_rotation
      1.18666667	      0.14759012	      3.65760173	      0.93525459	      0.21420637	      1.00147514	      0.28897785	     19.54980279	     -3.34283284	     -0.91419397	    -69.69912638	     -2.22099495	    -12.48665725	      0.15549118	      9.37944187	      8.76158210	      2.42668434	    -14.65299265	      2.32452390	     -9.42117614	      3.10846996	     -0.90046972	     -0.90115255	      1.69090676
      1.19083333	      0.21943258	      3.54090984	      0.94640801	      0.21933804	      1.00240515	      0.28885215	     20.04831228	     -3.16559783	     -0.82126619	    -69.48127714	     -1.59295465	    -12.84649700	      0.08798747	      8.79188889	      8.64110755	      2.54986370	    -14.31377691	      2.39915014	     -9.43576641	      3.08385789	     -1.00185248	     -0.75363370	      1.65466998
      1.19500000	      0.29633112	      3.42497681	      0.95483581	      0.22448946	      1.00332841	      0.28874569	     20.52038612	     -2.98585483	     -0.72976657	    -69.19027586	     -1.04445050	    -13.31589343	     -0.18469794	      8.17742225	      8.52485124	      2.72042738	    -13.93115764	      2.41940078	     -9.54773625	      2.97821871	     -1.10056394	     -0.62255676	      1.60253008
      1.19916667	      0.34322128	      3.31224004	      0.96707237	      0.22959055	      1.00414516	      0.28863226	     21.01768038	     -2.81874714	     -0.64518702	    -68.85847550	     -0.36419806	    -13.55053032	     -0.24747295	      7.63691536	      8.40634288	      2.83119654	    -13.62758517	      2.52850461	     -9.53113895	      2.95178173	     -1.17502390	     -0.47842008	      1.57790692
      1.20333333	      0.45246250	      3.20465150	      0.97467885	      0.23472739	      1.00504039	      0.28853942	     21.41735102	     -2.65475363	     -0.56411189	    -68.44417909	      0.23306332	    -13.94272481	     -0.38734481	      6.99885205	      8.29248799	      2.97291889	    -13.26444177	      2.60326744	     -9.57987036	      2.89187067	     -1.31163474	     -0.36099275	      1.53415141
      1.20750000	      0.47504025	      3.05769359	      0.99895808	      0.23983203	      1.00577112	      0.28843768	     21.89341480	     -2.45327665	     -0.50449170	    -67.96431907	      0.84741229	    -14.17318967	     -0.44552202	      6.49408252	      8.13500881	      3.08789029	    -12.97565866	      2.68312142	     -9.59663092	      2.86429796	     -1.34310427	     -0.17502565	      1.51141923
      1.21166667	      0.58013065	      2.95278569	      1.00765247	      0.24492388	      1.00659668	      0.28837839	     22.26234688	     -2.28498290	     -0.41742978	    -67.42685574	      1.41679069	    -14.58670815	     -0.59194284	      5.86689960	      8.02416947	      3.26224231	    -12.61737967	      2.74379857	     -9.68506550	      2.79673882	     -1.49906592	     -0.07491101	      1.46034795
      1.21583333	      0.65708524	      2.82873614	      1.02375232	      0.25004088	      1.00734966	      0.28829433	     22.63762294	     -2.11108921	     -0.36142226	    -66.82225676	      1.96779557	    -14.92894878	     -0.76228598	      5.27614232	      7.89201319	      3.41860402	    -12.27182571	      2.80805715	     -9.77565738	      2.71701925	     -1.59968672	      0.08835186	      1.41962547
      1.22000000	      0.72310535	      2.70016641	      1.04670841	      0.25512596	      1.00803122	      0.28822358	     23.00662324	     -1.93111294	     -0.30834730	    -66.15910065	      2.49769193	    -15.26202842	     -0.94435494	      4.71123559	      7.75344794	      3.57476492	    -11.94926212	      2.88138078	     -9.85720415	      2.63181621	     -1.69345169	      0.23609994	      1.37676903
